<?xml version="1.0" encoding="UTF-8"?>
<!DOCTYPE svg PUBLIC "-//W3C//DTD SVG 1.1//EN" "http://www.w3.org/Graphics/SVG/1.1/DTD/svg11.dtd">
<!-- Creator: CorelDRAW -->
<svg xmlns="http://www.w3.org/2000/svg" xml:space="preserve" width="64px" height="64px" style="shape-rendering:geometricPrecision; text-rendering:geometricPrecision; image-rendering:optimizeQuality; fill-rule:evenodd; clip-rule:evenodd"
viewBox="0 0 64 64"
 xmlns:xlink="http://www.w3.org/1999/xlink"
 xmlns:svg="http://www.w3.org/2000/svg">
 <defs>
  <style type="text/css">
   <![CDATA[
    .fil0 {fill:none}
    .fil2 {fill:#2C3E50}
    .fil4 {fill:#8D8F93}
    .fil1 {fill:#F4D03F}
    .fil3 {fill:white}
    .fil5 {fill:#211D1D;fill-rule:nonzero}
    .fil6 {fill:#2C3E50;fill-rule:nonzero}
   ]]>
  </style>
 </defs>
 <g id="Layer_x0020_1">
  <metadata id="CorelCorpID_0Corel-Layer"/>
  <rect class="fil0" width="64" height="64"/>
  <g id="_26b132fd54e3dfd996ca3cff5a2916f9_bus-top-view-clip-art-at-clkercom-vector-clip-art-online-_640-640.svg">
   <g>
    <g id="g10">
     <path id="path342" class="fil1" d="M24.6251 61.9366c1.56498,0.388587 4.4658,0.490164 7.37253,0.490164 2.8961,0 5.79692,-0.101576 7.35718,-0.484258 1.21655,-0.287011 1.80002,-1.40435 1.75514,-3.01893l0 -47.5683c0.020079,-2.15199 0.0248035,-4.1847 -0.125198,-5.12841 -0.338981,-2.09176 -0.94135,-3.55752 -1.93821,-3.87997 -1.84018,-0.615362 -4.44691,-0.902373 -7.05363,-0.902373 -2.60791,0 -5.21936,0.281106 -7.05954,0.896468 -0.996863,0.323626 -1.59451,1.79412 -1.93349,3.88587 -0.150002,0.943712 -0.150002,2.97641 -0.129923,5.12841l0 47.5683c-0.040158,1.61459 0.538589,2.72602 1.75514,3.01303m0 0l0 0 0 0z"/>
     <path id="path344" class="fil2" d="M40.8407 14.1817l-0.362603 6.95796c-0.0460636,0.882294 -0.251578,1.39136 -0.446462,1.44096l-0.575204 0.150002c-0.119293,0.0295279 -0.204333,-0.399218 -0.204333,-1.04175l0 -1.34647c0,-1.45514 0.0531503,-2.65161 0.184254,-3.51382l0.418115 -2.76736c0.0897649,-0.603551 0.216144,-1.03112 0.368508,-1.02639l0.484258 0.00944894c0.0921271,0 0.160632,0.62363 0.133466,1.13742m0 0l0 0 0 0z"/>
     <path id="path346" class="fil2" d="M39.4304 17.2821l1.226 -0.51851 -0.229137 4.36659c-0.0153545,0.308272 -0.060237,0.622449 -0.134647,0.927177 -0.140553,0.527959 -0.274019,0.473628 -0.842136,0.617724 -0.111025,0 -0.150002,-0.777175 -0.150002,-0.871664 0,-1.50592 -0.0248035,-3.0213 0.129923,-4.52132m0 0l0 0 0 0z"/>
     <path id="path348" class="fil2" d="M40.6812 16.2746l-1.17639 0.498431c0.1689,-1.14686 0.26457,-2.33271 0.558668,-3.44414 0.114568,-0.354335 0.229137,-0.244491 0.627173,-0.239767 0.100395,0.100395 0.100395,0.863396 0.100395,0.992138l-0.109844 2.19333m0 0l0 0 0 0z"/>
     <path id="path350" class="fil2" d="M40.7911 13.0242c0,-0.144096 0.0590558,-0.263389 0.249216,-0.442919 0.303547,-0.289374 0.473628,-0.145277 0.826782,-0.0496069 0.374414,0.103938 0.314177,0.0342524 0.683867,0.283468 0.218507,0.154726 0.249216,0.318902 0.249216,0.592921 0,0.140553 -0.115749,0.279925 -0.249216,0.249216l-1.51065 -0.382682c-0.134647,-0.030709 -0.249216,-0.115749 -0.249216,-0.250397m0 0l0 0 0 0z"/>
     <path id="path352" class="fil2" d="M40.7911 12.9994c0.00472447,-0.139372 0.0944894,-0.283468 0.249216,-0.42284 0.0448824,-0.050788 0.0944894,-0.0803159 0.144096,-0.105119 -0.294098,-0.199609 -0.887019,-0.338981 -0.902373,-0.0696859 -0.0248035,0.233861 0.0106301,0.338981 0.0354335,0.4441 0.0248035,0.133466 0.289374,0.198428 0.473628,0.153545m0 0l0 0 0 0z"/>
     <path id="path354" class="fil3" d="M40.5418 22.1767l0 -0.308272c0,-0.209058 0.0354335,-0.385044 0.0791348,-0.385044l0.28583 0c0.0425202,0 0.0779537,0.170081 0.0779537,0.385044l0 0.308272c0,0.214963 -0.0342524,0.383863 -0.0779537,0.383863l-0.28583 0c-0.0448824,0 -0.0791348,-0.1689 -0.0791348,-0.383863z"/>
     <path id="path358" class="fil2" d="M38.7524 23.2928l0.233861 -0.00590558c0.00944894,-3.2587 0.020079,-6.25638 0.105119,-6.75599l-0.0106301 0c0.298823,-2.44846 0.992138,-4.1658 0.842136,-5.76976 -0.108663,-1.1256 -0.77245,-1.38663 -1.49529,-1.57679 -2.17326,-0.576385 -4.29218,-0.837412 -6.43591,-0.837412 -2.14255,0 -4.25675,0.225593 -6.42528,0.830325 -0.716938,0.197247 -1.38073,0.451187 -1.48939,1.58388 -0.154726,1.60396 0.542133,3.31421 0.837412,5.76976l-0.00590558 0 0.109844 0.915366c0.0696859,0.0283468 0.145277,0.0496069 0.229137,0.0496069l-0.114568 -0.887019c2.33861,-0.302366 4.60636,-0.527959 6.86938,-0.527959 2.26774,0 4.53076,0.239767 6.85993,0.535046 -0.129923,0.421659 -0.109844,2.56066 -0.109844,6.67685z"/>
     <path id="path360" class="fil2" d="M26.6436 16.225c2.27247,-0.26457 4.57092,-0.413391 6.85875,-0.309453 1.3512,0.030709 2.73665,0.19016 4.08312,0.338981 0.438194,0.050788 0.882294,0.109844 1.31576,0.165356 0.210239,-1.59569 0.677961,-3.16067 0.837412,-4.76108 0.0448824,-0.727568 0.0555125,-1.60514 -0.642528,-2.02443 -0.473628,-0.268114 -1.19175,-0.398036 -1.71971,-0.512605 -3.80438,-0.852766 -7.99144,-0.792529 -11.7498,0.238586 -0.498431,0.140553 -0.947256,0.294098 -1.19175,0.783081 -0.377957,0.892924 -0.0944894,2.21814 0.0850404,3.13587 0.229137,1.01104 0.459454,2.08349 0.578747,3.12051 0.0992138,0.020079 0.338981,-0.0354335 0.453549,-0.0448824 0.353154,-0.0448824 0.732292,-0.0897649 1.09135,-0.129923z"/>
     <path id="path364" class="fil3" d="M39.0217 5.9859c1.18112,0.209058 1.89333,-0.617724 0.777175,-1.90396 -0.363784,-0.413391 -1.376,-1.23663 -3.24571,-1.226 0.255121,0.947256 1.49057,2.96106 2.46853,3.12996z"/>
     <path id="path368" class="fil4" d="M26.046 57.7968c-0.320083,0 -0.568117,0.0744104 -0.568117,0.152364l0 0.732292c0,0.0850404 0.357878,0.432289 0.657882,0.438194 2.41775,0.175986 4.13745,0.297641 5.87133,0.297641 1.71498,0 3.45004,-0.118112 5.86779,-0.29646 0.298823,-0.00590558 0.653158,-0.354335 0.653158,-0.439375l0 -0.732292c0,-0.0779537 -0.249216,-0.151183 -0.563393,-0.151183 -1.989,0.127561 -3.95792,0.235042 -5.96228,0.235042 -2.00436,0 -3.96737,-0.0519691 -5.95637,-0.236223z"/>
     <path id="path370" class="fil2" d="M25.5275 58.6696c0.0649614,0.194884 0.42284,0.373233 0.613,0.398036 1.66419,0.109844 3.37445,0.289374 5.054,0.289374 2.21814,0.0649614 4.46698,-0.139372 6.67567,-0.283468 0.184254,-0.0354335 0.543314,-0.210239 0.607094,-0.403942l0 -0.722844c-0.363784,-0.17953 -1.05119,-0.0696859 -1.43978,-0.040158 -1.90987,0.100395 -3.86816,0.219688 -5.78275,0.170081 -1.73979,0 -3.47957,-0.0897649 -5.20873,-0.230318 -0.174805,0.00590558 -0.35906,0.020079 -0.51851,0.100395l0 0.722844m0 0l0 0 0 0z"/>
     <path id="path372" class="fil2" d="M24.6251 62.1563c-1.21655,-0.238586 -1.80475,-1.17639 -1.75514,-2.52168l0 -0.19016 1.86498 -0.128742 -0.120474 2.37286c1.68073,0.377957 4.51187,0.532684 7.36308,0.532684 2.80161,0 5.62802,-0.134647 7.37726,-0.527959l-0.114568 -2.37286 1.86498 0.129923 0 0.184254c0.0496069,1.34529 -0.538589,2.2831 -1.75514,2.52168 -1.55553,0.318902 -4.45635,0.399218 -7.35718,0.399218 -2.41775,0 -5.01502,0.0803159 -7.36781,-0.399218m0 0l0 0 0 0z"/>
     <path id="path374" class="fil2" d="M36.6382 3.10988l-0.0153545 0 0 -0.0354335 0.0153545 0.0354335zm-9.27177 0.00472447l0.0106301 -0.040158 0 0.040158 -0.0106301 0zm-3.70871 2.27365c-0.060237,-0.340162 0.0803159,-0.787805 0.538589,-1.31576 0.368508,-0.399218 1.35592,-1.21655 3.17957,-1.22718l0 -0.0496069c1.28624,-0.418115 2.752,-0.622449 4.41265,-0.598826l0 0.00590558 0.0295279 -0.00590558c0.129923,0.00590558 0.258665,0.00590558 0.393312,0.0106301l0 -0.020079c1.66065,-0.020079 3.13114,0.17953 4.41147,0.603551l0 0.0543314c1.82955,0.0106301 2.81224,0.823238 3.18075,1.22718 0.458273,0.527959 0.603551,0.975603 0.538589,1.31104l0.712213 0.607094c-0.0188979,-0.218507 -0.0448824,-0.408666 -0.0696859,-0.562212 -0.338981,-1.74569 -0.936626,-2.96224 -1.93349,-3.23154 -1.8449,-0.517329 -4.44691,-0.757096 -7.05954,-0.757096 -0.0685048,0 -0.133466,0 -0.203152,0l0 0.00472447c-2.53822,0.0106301 -5.04573,0.249216 -6.83512,0.752371 -0.996863,0.269295 -1.59451,1.48585 -1.93349,3.23154 -0.0295279,0.15827 -0.0496069,0.348429 -0.0696859,0.566936l0.707489 -0.607094m0 0l0 0 0 0z"/>
     <path id="path376" class="fil2" d="M23.1546 14.1758l0.362603 6.95914c0.0460636,0.882294 0.251578,1.39136 0.446462,1.44096l0.575204 0.148821c0.119293,0.030709 0.204333,-0.398036 0.204333,-1.04175l0 -1.34529c0,-1.45514 -0.0543314,-2.65161 -0.184254,-3.515l-0.418115 -2.76618c-0.0897649,-0.603551 -0.216144,-1.0323 -0.36969,-1.02639l-0.483077 0.00944894c-0.0921271,0 -0.160632,0.62363 -0.133466,1.13623m0 0l0 0 0 0z"/>
     <path id="path378" class="fil2" d="M24.5649 17.2821l-1.226 -0.51851 0.229137 4.36659c0.0153545,0.308272 0.060237,0.622449 0.134647,0.927177 0.139372,0.527959 0.274019,0.473628 0.842136,0.617724 0.109844,0 0.150002,-0.777175 0.150002,-0.871664 0,-1.50592 0.0248035,-3.0213 -0.129923,-4.52132m0 0l0 0 0 0z"/>
     <path id="path380" class="fil2" d="M23.3141 16.2746l1.17639 0.498431c-0.170081,-1.14686 -0.26457,-2.33271 -0.558668,-3.44414 -0.114568,-0.354335 -0.229137,-0.244491 -0.628354,-0.239767 -0.0992138,0.100395 -0.0992138,0.863396 -0.0992138,0.992138l0.109844 2.19333z"/>
     <path id="path382" class="fil2" d="M23.2089 13.0195c0,-0.144096 -0.0590558,-0.26457 -0.249216,-0.442919 -0.303547,-0.289374 -0.473628,-0.145277 -0.826782,-0.050788 -0.374414,0.105119 -0.314177,0.0354335 -0.683867,0.284649 -0.218507,0.154726 -0.249216,0.318902 -0.249216,0.592921 0,0.140553 0.114568,0.279925 0.249216,0.249216l1.51065 -0.383863c0.134647,-0.0295279 0.249216,-0.114568 0.249216,-0.249216m0 0l0 0 0 0z"/>
     <path id="path384" class="fil2" d="M23.2089 12.9946c-0.00472447,-0.139372 -0.0944894,-0.284649 -0.249216,-0.424021 -0.0448824,-0.0496069 -0.0944894,-0.0791348 -0.144096,-0.103938 0.294098,-0.199609 0.887019,-0.340162 0.902373,-0.070867 0.0248035,0.235042 -0.0106301,0.340162 -0.0354335,0.4441 -0.0248035,0.134647 -0.289374,0.199609 -0.473628,0.154726m0 0l0 0 0 0z"/>
     <path id="path386" class="fil3" d="M23.4582 22.1719l0 -0.309453c0,-0.209058 -0.0354335,-0.383863 -0.0791348,-0.383863l-0.28583 0c-0.0425202,0 -0.0779537,0.170081 -0.0779537,0.383863l0 0.309453c0,0.214963 0.0342524,0.383863 0.0779537,0.383863l0.28583 0c0.0448824,0 0.0791348,-0.1689 0.0791348,-0.383863z"/>
     <path id="path390" class="fil3" d="M24.9735 5.9859c-1.18112,0.209058 -1.89451,-0.617724 -0.777175,-1.90396 0.363784,-0.413391 1.376,-1.23663 3.24453,-1.226 -0.25394,0.947256 -1.49057,2.96106 -2.46735,3.12996z"/>
     <path id="path404" class="fil2" d="M36.265 3.14768c-0.0496069,-0.171262 -0.109844,-0.257483 -0.269295,-0.347248 -0.100395,-0.060237 -0.269295,-0.155907 -0.558668,-0.165356 -0.837412,-0.192522 -2.12837,-0.29646 -3.42524,-0.29646 -1.29569,0 -2.58665,0.135828 -3.41933,0.295279 -0.283468,0.00826782 -0.453549,0.103938 -0.557487,0.164175 -0.159451,0.0897649 -0.219688,0.175986 -0.26457,0.347248 1.39608,-0.325988 2.79098,-0.426383 4.18233,-0.460636 1.45514,-0.0366146 3.02012,0.226774 4.31226,0.462998m0 0l0 0 0 0z"/>
     <path id="path406" class="fil3" d="M32.0177 2.35751c0.325988,0 0.592921,0.0791348 0.592921,0.177168 0,0.0968516 -0.266932,0.175986 -0.592921,0.175986 -0.327169,0 -0.594102,-0.0791348 -0.594102,-0.175986 0,-0.0980327 0.266932,-0.177168 0.594102,-0.177168z"/>
     <path id="path866" class="fil5" d="M39.2438 49.0352l0.0519691 -23.5432 -0.00236223 0 -0.0519691 23.5432m0.00236223 0l0 0 0 0z"/>
     <path id="path868" class="fil5" d="M39.2958 25.492c0,-0.376776 0.0141734,-0.668512 0.0460636,-0.865759 0.0318902,-0.197247 0.0826782,-0.300004 0.155907,-0.300004l0 -0.00236223c-0.150002,0.00118112 -0.204333,0.414572 -0.204333,1.16812l0.00236223 0z"/>
     <polygon id="path870" class="fil5" points="39.9714,24.3263 39.9714,24.3239 39.4977,24.3239 39.4977,24.3263 "/>
     <path id="path872" class="fil5" d="M39.9714 24.3263c0.103938,0 0.238586,0.0885838 0.308272,0.432289l0.00118112 0c-0.0685048,-0.343705 -0.204333,-0.434651 -0.309453,-0.434651l0 0.00236223z"/>
     <path id="path874" class="fil5" d="M40.2796 24.7586l0.303547 1.46577 0.00118112 0 -0.303547 -1.46577m-0.00118112 0l0 0 0 0z"/>
     <path id="path876" class="fil5" d="M40.5832 26.2243c0.12638,0.617724 0.160632,0.82442 0.160632,2.07286 0,0.0425202 0,0.0862215 0,0.131104l0.00236223 0c0,-0.0448824 0,-0.0885838 0,-0.131104 0,-1.24844 -0.0342524,-1.45514 -0.161813,-2.07286l-0.00118112 0z"/>
     <path id="path878" class="fil5" d="M40.7438 28.4283l-0.040158 20.7369 0.00118112 0 0.0413391 -20.7369m-0.00236223 0l0 0 0 0z"/>
     <path id="path880" class="fil5" d="M38.9769 36.0406l2.1331 -0.0555125 0 -0.00118112 -2.1331 0.0543314m0 0.00236223l0 0 0 0z"/>
     <path id="path882" class="fil5" d="M36.5674 3.72642c0.300004,1.72916 0.688591,3.32603 1.18112,4.78116l0.00236223 -0.00118112c-0.493707,-1.45514 -0.882294,-3.05082 -1.18112,-4.77998l-0.00236223 0m0 0l0 0 0 0z"/>
     <path id="path884" class="fil5" d="M39.1245 5.97291c0.244491,1.30395 0.428745,2.82877 0.428745,3.71343 0,0.214963 -0.0106301,0.392131 -0.0342524,0.51851l0.00118112 0c0.0236223,-0.12638 0.0342524,-0.303547 0.0342524,-0.51851 0,-0.885838 -0.183073,-2.40948 -0.427564,-3.71343l-0.00236223 0m0 0l0 0 0 0z"/>
     <polygon id="path888" class="fil5" points="41.1052,23.2845 41.1052,23.2822 38.7524,23.2822 38.7524,23.2845 "/>
     <polygon id="path890" class="fil5" points="41.1052,23.7877 41.1052,23.7853 31.6291,23.7853 31.6291,23.7877 "/>
     <polygon id="path894" class="fil5" points="38.9875,49.1203 38.9875,23.2928 38.9851,23.2928 38.9851,49.1203 "/>
     <polygon id="path896" class="fil5" points="38.7477,49.1203 38.7477,23.2928 38.7465,23.2928 38.7465,49.1203 "/>
     <path id="path898" class="fil5" d="M39.8639 11.745l1.27561 0.134647 0 -0.00236223 -1.27561 -0.134647m0 0.00236223l0 0 0 0z"/>
     <path id="path900" class="fil5" d="M24.7538 49.0352l-0.0519691 -23.5432 -0.00236223 0 0.0519691 23.5432m0.00236223 0l0 0 0 0z"/>
     <path id="path902" class="fil5" d="M24.7019 25.492c-0.00118112,-0.753553 -0.0555125,-1.16694 -0.204333,-1.16812l0 0.00236223c0.0720481,0 0.124017,0.102757 0.155907,0.300004 0.0318902,0.197247 0.0460636,0.488982 0.0460636,0.865759l0.00236223 0z"/>
     <polygon id="path904" class="fil5" points="24.4975,24.3263 24.4975,24.3239 24.0239,24.3239 24.0239,24.3263 "/>
     <path id="path906" class="fil5" d="M24.0239 24.3239c-0.106301,0 -0.240948,0.090946 -0.310634,0.434651l0.00236223 0c0.0696859,-0.343705 0.204333,-0.432289 0.308272,-0.432289l0 -0.00236223z"/>
     <path id="path908" class="fil5" d="M23.7133 24.7586l-0.303547 1.46577 0.00236223 0 0.303547 -1.46577m-0.00236223 0l0 0 0 0z"/>
     <path id="path910" class="fil5" d="M23.4097 26.2243c-0.12638,0.615362 -0.160632,0.823238 -0.160632,2.06105 0,0.0460636 0,0.0933082 0,0.142915l0.00236223 0c0,-0.0496069 0,-0.0968516 0,-0.142915 0,-1.23781 0.0342524,-1.44569 0.160632,-2.06105l-0.00236223 0z"/>
     <path id="path912" class="fil5" d="M23.2491 28.4283l0.040158 20.7369 0.00236223 0 -0.040158 -20.7369m-0.00236223 0l0 0 0 0z"/>
     <path id="path914" class="fil5" d="M25.0137 36.0335l-2.12837 -0.0543314 0 0.00118112 2.12837 0.0555125m0 -0.00236223l0 0 0 0z"/>
     <path id="path916" class="fil5" d="M27.4255 3.72642c-0.298823,1.72916 -0.688591,3.32484 -1.18112,4.77998l0.00118112 0.00118112c0.493707,-1.45514 0.882294,-3.05201 1.1823,-4.78116l-0.00236223 0m0 0l0 0 0 0z"/>
     <path id="path918" class="fil5" d="M24.8684 5.97291c-0.244491,1.30395 -0.428745,2.82759 -0.428745,3.71343 0,0.214963 0.0118112,0.392131 0.0342524,0.51851l0.00236223 0c-0.0236223,-0.12638 -0.0342524,-0.303547 -0.0342524,-0.51851 0,-0.884657 0.183073,-2.40948 0.427564,-3.71343l-0.00118112 0z"/>
     <polygon id="path922" class="fil5" points="25.2476,23.2798 25.2476,23.2775 22.8948,23.2775 22.8948,23.2798 "/>
     <polygon id="path926" class="fil5" points="25.0102,49.1203 25.0102,23.2928 25.0078,23.2928 25.0078,49.1203 "/>
     <polygon id="path928" class="fil5" points="25.2487,49.1203 25.2487,23.2928 25.2464,23.2928 25.2464,49.1203 "/>
     <path id="path930" class="fil5" d="M24.1361 11.7379l-1.27561 0.134647 0 0.00118112 1.27561 -0.134647m0 -0.00118112l0 0 0 0z"/>
     <path id="path952" class="fil6" d="M36.6985 3.26697c-1.37246,-0.353154 -2.85122,-0.60237 -4.59927,-0.60237 -0.181892,0 -0.367327,0.00236223 -0.555125,0.00826782l0 0.00236223c0.187798,-0.00590558 0.373233,-0.00826782 0.555125,-0.00826782 1.74805,0 3.22681,0.248035 4.59927,0.601188l0 -0.00118112m0 0l0 0 0 0z"/>
     <path id="path954" class="fil6" d="M27.337 3.27406c1.37246,-0.353154 2.85004,-0.60237 4.59691,-0.60237 0.183073,0 0.368508,0.00236223 0.557487,0.00826782l0 -0.00236223c-0.188979,-0.00472447 -0.374414,-0.00826782 -0.557487,-0.00826782 -1.74687,0 -3.22563,0.249216 -4.59691,0.60237l0 0.00236223m0 0l0 0 0 0z"/>
     <path id="_606116568" class="fil2" d="M23.5007 55.9247l0 -30.8508c0,-0.471266 0.382682,-0.853948 0.853948,-0.853948l0 0c0.471266,0 0.853948,0.382682 0.853948,0.853948l0 30.8508c0,0.471266 -0.382682,0.852766 -0.853948,0.852766l0 0c-0.471266,0 -0.853948,-0.381501 -0.853948,-0.852766z"/>
     <path id="path386-4-4" class="fil2" d="M24.1054 31.2205l0.511424 -0.00118112c0.347248,0 0.635441,-0.0236223 0.635441,-0.0519691l-0.00118112 -0.185435c0,-0.0271657 -0.281106,-0.050788 -0.635441,-0.050788l-0.512605 0.00118112c-0.354335,0 -0.635441,0.0224412 -0.63426,0.050788l0.00118112 0.186616c0,0.0283468 0.281106,0.050788 0.635441,0.050788z"/>
     <path id="path386-4-4-6" class="fil2" d="M24.1432 27.0228l0.511424 0c0.347248,0 0.635441,-0.0236223 0.635441,-0.0519691l-0.00118112 -0.185435c0,-0.0283468 -0.281106,-0.050788 -0.635441,-0.050788l-0.512605 0c-0.354335,0.00118112 -0.635441,0.0236223 -0.63426,0.0519691l0.00118112 0.186616c0,0.0283468 0.279925,0.050788 0.635441,0.0496069m0 0l0 0 0 0z"/>
     <path id="path386-4-4-4" class="fil2" d="M24.1196 35.3225l0.494888 0c0.335437,-0.00118112 0.614181,-0.0248035 0.614181,-0.0519691l-0.00118112 -0.186616c0,-0.0271657 -0.271657,-0.050788 -0.614181,-0.0496069l-0.496069 0c-0.342524,0 -0.614181,0.0236223 -0.614181,0.0519691l0.00118112 0.185435c0.00118112,0.0295279 0.272838,0.050788 0.615362,0.050788z"/>
     <path id="path386-4-4-4-0" class="fil2" d="M24.1373 39.5946l0.494888 -0.00118112c0.335437,0 0.614181,-0.0236223 0.614181,-0.0519691l-0.00118112 -0.185435c0,-0.0271657 -0.271657,-0.050788 -0.615362,-0.050788l-0.494888 0.00118112c-0.342524,0 -0.614181,0.0224412 -0.614181,0.050788l0.00118112 0.186616c0,0.0283468 0.271657,0.050788 0.615362,0.050788m0 0l0 0 0 0z"/>
     <path id="path386-4-4-4-2" class="fil2" d="M24.1373 43.7746l0.494888 -0.00118112c0.335437,0 0.614181,-0.0236223 0.614181,-0.050788l-0.00118112 -0.186616c0,-0.0271657 -0.271657,-0.050788 -0.615362,-0.050788l-0.494888 0.00118112c-0.342524,0 -0.614181,0.0224412 -0.614181,0.0519691l0.00118112 0.185435c0,0.0283468 0.271657,0.050788 0.615362,0.050788m0 0l0 0 0 0z"/>
     <path id="path386-4-4-4-2-9" class="fil2" d="M24.1373 47.9663l0.494888 0c0.335437,-0.00118112 0.614181,-0.0248035 0.614181,-0.0519691l-0.00118112 -0.186616c0,-0.0271657 -0.271657,-0.050788 -0.615362,-0.0496069l-0.494888 0c-0.342524,0 -0.614181,0.0236223 -0.614181,0.0519691l0.00118112 0.185435c0,0.0295279 0.271657,0.050788 0.615362,0.050788m0 0l0 0 0 0z"/>
     <path id="_606118320" class="fil2" d="M38.906 56.0416l0 -30.9677c0,-0.471266 0.382682,-0.853948 0.853948,-0.853948l0 0c0.471266,0 0.853948,0.382682 0.853948,0.853948l0 30.9677c0,0.471266 -0.382682,0.853948 -0.853948,0.853948l0 0c-0.471266,0 -0.853948,-0.382682 -0.853948,-0.853948z"/>
     <path id="path386-4-4-43" class="fil2" d="M39.5107 31.2205l0.511424 -0.00118112c0.347248,0 0.635441,-0.0236223 0.635441,-0.0519691l-0.00118112 -0.185435c0,-0.0271657 -0.281106,-0.050788 -0.635441,-0.050788l-0.512605 0.00118112c-0.354335,0 -0.63426,0.0224412 -0.63426,0.050788l0.00118112 0.186616c0,0.0283468 0.281106,0.050788 0.635441,0.050788m0 0l0 0 0 0z"/>
     <path id="path386-4-4-6-7" class="fil2" d="M39.5485 27.0228l0.511424 0c0.347248,0 0.635441,-0.0236223 0.635441,-0.0519691l-0.00118112 -0.185435c0,-0.0283468 -0.281106,-0.050788 -0.635441,-0.050788l-0.512605 0c-0.354335,0.00118112 -0.635441,0.0236223 -0.63426,0.0519691l0.00118112 0.186616c0,0.0283468 0.281106,0.050788 0.635441,0.0496069m0 0l0 0 0 0z"/>
     <path id="path386-4-4-4-5" class="fil2" d="M39.5249 35.3225l0.494888 0c0.335437,-0.00118112 0.614181,-0.0248035 0.614181,-0.0519691l-0.00118112 -0.186616c0,-0.0271657 -0.271657,-0.050788 -0.614181,-0.0496069l-0.496069 0c-0.342524,0 -0.614181,0.0236223 -0.613,0.0519691l0.00118112 0.185435c0,0.0295279 0.271657,0.050788 0.614181,0.050788m0 0l0 0 0 0z"/>
     <path id="path386-4-4-4-0-6" class="fil2" d="M39.5426 39.5946l0.494888 -0.00118112c0.335437,0 0.614181,-0.0236223 0.614181,-0.0519691l-0.00118112 -0.185435c0,-0.0271657 -0.271657,-0.050788 -0.614181,-0.050788l-0.496069 0.00118112c-0.342524,0 -0.614181,0.0224412 -0.614181,0.050788l0.00118112 0.186616c0.00118112,0.0283468 0.272838,0.050788 0.615362,0.050788z"/>
     <path id="path386-4-4-4-2-8" class="fil2" d="M39.5426 43.7746l0.494888 -0.00118112c0.335437,0 0.614181,-0.0236223 0.614181,-0.050788l-0.00118112 -0.186616c0,-0.0271657 -0.271657,-0.050788 -0.614181,-0.050788l-0.496069 0.00118112c-0.342524,0 -0.614181,0.0224412 -0.614181,0.0519691l0.00118112 0.185435c0.00118112,0.0283468 0.272838,0.050788 0.615362,0.050788z"/>
     <path id="path386-4-4-4-2-9-1" class="fil2" d="M39.5426 47.9663l0.494888 0c0.335437,-0.00118112 0.614181,-0.0248035 0.614181,-0.0519691l-0.00118112 -0.186616c0,-0.0271657 -0.271657,-0.050788 -0.614181,-0.0496069l-0.496069 0c-0.342524,0 -0.614181,0.0236223 -0.614181,0.0519691l0.00118112 0.185435c0.00118112,0.0295279 0.272838,0.050788 0.615362,0.050788z"/>
    </g>
   </g>
  </g>
 </g>
</svg>
